<?xml version="1.0" encoding="UTF-8"?><!DOCTYPE svg PUBLIC "-//W3C//DTD SVG 1.1//EN" "http://www.w3.org/Graphics/SVG/1.1/DTD/svg11.dtd"><svg xmlns="http://www.w3.org/2000/svg" xmlns:xlink="http://www.w3.org/1999/xlink" version="1.1" id="Icons" x="0px" y="0px" viewBox="0 0 32 32" xml:space="preserve"><path fill="#333" d="M16.672 8.026c-.222-.018-.445-.034-.672-.034s-.45.015-.672.034C9.6 8.215 4.156 10.796.306 15.187a1.236 1.236 0 0 0 0 1.625c4.001 4.563 9.721 7.18 15.694 7.18 5.973 0 11.692-2.617 15.694-7.179a1.236 1.236 0 0 0 0-1.625c-3.851-4.392-9.294-6.973-15.022-7.162zM22 15.984c0 3.304-2.691 5.992-6 5.992s-6-2.688-6-5.992c0-3.04 2.28-5.552 5.221-5.935.26-.011.518-.041.779-.041s.519.03.779.041C19.72 10.432 22 12.944 22 15.984zM9.638 11.159A7.932 7.932 0 0 0 8 15.984c0 1.834.628 3.52 1.671 4.87A19.073 19.073 0 0 1 2.27 16a19.064 19.064 0 0 1 7.368-4.841zm12.691 9.695A7.939 7.939 0 0 0 24 15.984a7.942 7.942 0 0 0-1.637-4.825A19.082 19.082 0 0 1 29.731 16a19.084 19.084 0 0 1-7.402 4.854z"/><path fill="#333" d="M13 15.984c0 1.653 1.346 2.997 3 2.997s3-1.344 3-2.997-1.346-2.997-3-2.997-3 1.344-3 2.997zm5 0a2 2 0 0 1-4 0 2 2 0 0 1 4 0z"/><metadata><rdf:RDF xmlns:rdf="http://www.w3.org/1999/02/22-rdf-syntax-ns#" xmlns:rdfs="http://www.w3.org/2000/01/rdf-schema#" xmlns:dc="http://purl.org/dc/elements/1.1/"><rdf:Description about="https://iconscout.com/legal#licenses" dc:title="sharps,eye" dc:description="sharps,eye" dc:publisher="Iconscout" dc:date="2017-08-21" dc:format="image/svg+xml" dc:language="en"><dc:creator><rdf:Bag><rdf:li>Dreamstale Creations</rdf:li></rdf:Bag></dc:creator></rdf:Description></rdf:RDF></metadata></svg>