<?xml version="1.0" encoding="UTF-8"?><!DOCTYPE svg PUBLIC "-//W3C//DTD SVG 1.1//EN" "http://www.w3.org/Graphics/SVG/1.1/DTD/svg11.dtd"><svg xmlns="http://www.w3.org/2000/svg" xmlns:xlink="http://www.w3.org/1999/xlink" version="1.1" id="Icons" x="0px" y="0px" viewBox="0 0 32 32" xml:space="preserve"><path fill="#333" d="M.077 16.436l.055.139.174.246a21.479 21.479 0 0 0 5.016 4.205 1.002 1.002 0 0 0 1.373-.339 1 1 0 0 0-.34-1.373 19.231 19.231 0 0 1-4.087-3.305 19.536 19.536 0 0 1 2.443-2.193 19.495 19.495 0 0 1 1.644-1.111 18.84 18.84 0 0 1 1.752-.935 18.675 18.675 0 0 1 1.542-.623 7.98 7.98 0 0 0-1.021 1.737C8.212 13.868 8 14.915 8 15.992s.212 2.124.629 3.11a.998.998 0 0 0 1.311.531.999.999 0 0 0 .531-1.31C10.158 17.585 10 16.8 10 15.992s.158-1.593.471-2.332a5.998 5.998 0 0 1 3.193-3.19 5.935 5.935 0 0 1 1.701-.436c.91-.03 1.826-.002 2.718.097a.992.992 0 0 0 1.105-.882 1 1 0 0 0-.883-1.105 21.058 21.058 0 0 0-2.21-.125C16.062 8.016 16.034 8 16 8c-.256 0-.511.014-.763.038a20.64 20.64 0 0 0-1.542.106 20.577 20.577 0 0 0-8.373 2.846 21.154 21.154 0 0 0-3.491 2.635c-.536.5-1.05 1.028-1.514 1.558l-.102.119-.138.278a.97.97 0 0 0-.05.17L0 15.898l.014.292c.012.087.035.173.063.246z"/><path fill="#333" d="M25.305 11.33a1 1 0 0 0 .34 1.373 19.231 19.231 0 0 1 4.087 3.305 19.536 19.536 0 0 1-2.443 2.193c-.529.398-1.082.772-1.644 1.111a18.84 18.84 0 0 1-1.752.935c-.513.24-1.045.445-1.577.638a7.968 7.968 0 0 0 1.056-1.784c.416-.985.628-2.032.628-3.109s-.212-2.124-.629-3.111a1 1 0 0 0-1.842.778c.313.74.471 1.525.471 2.333s-.158 1.593-.471 2.331a5.986 5.986 0 0 1-1.287 1.906A5.977 5.977 0 0 1 16 21.984c-.023 0-.043.012-.066.013a19.116 19.116 0 0 1-2.018-.112 1.005 1.005 0 0 0-1.104.883 1 1 0 0 0 .884 1.104 20.862 20.862 0 0 0 4.61 0 20.577 20.577 0 0 0 8.372-2.846 21.154 21.154 0 0 0 3.491-2.635c.536-.5 1.05-1.028 1.514-1.558l.102-.119.135-.268a.955.955 0 0 0 .055-.189l.025-.143-.014-.288a1.254 1.254 0 0 0-.067-.257l-.225-.373a21.479 21.479 0 0 0-5.016-4.205 1 1 0 0 0-1.373.339z"/><path fill="#333" d="M17.279 13.307c-1.112-.503-2.513-.321-3.4.566A2.98 2.98 0 0 0 13 15.992c0 .456.112.891.304 1.29l-7.511 7.511a.999.999 0 1 0 1.414 1.414l7.514-7.514c.396.188.828.296 1.279.296.801 0 1.555-.312 2.121-.878A2.977 2.977 0 0 0 19 15.992c0-.452-.109-.884-.298-1.28l7.505-7.505a.999.999 0 1 0-1.414-1.414l-7.514 7.514zM14 15.992c0-.533.208-1.035.586-1.413.377-.377.88-.584 1.414-.584.177 0 .349.031.516.075l-2.439 2.439a1.942 1.942 0 0 1-.077-.517zm4 0c0 .533-.208 1.034-.586 1.412-.499.498-1.24.66-1.905.5l2.418-2.418c.043.165.073.332.073.506z"/><metadata><rdf:RDF xmlns:rdf="http://www.w3.org/1999/02/22-rdf-syntax-ns#" xmlns:rdfs="http://www.w3.org/2000/01/rdf-schema#" xmlns:dc="http://purl.org/dc/elements/1.1/"><rdf:Description about="https://iconscout.com/legal#licenses" dc:title="sharps,blind,eye" dc:description="sharps,blind,eye" dc:publisher="Iconscout" dc:date="2017-08-21" dc:format="image/svg+xml" dc:language="en"><dc:creator><rdf:Bag><rdf:li>Dreamstale Creations</rdf:li></rdf:Bag></dc:creator></rdf:Description></rdf:RDF></metadata></svg>